<svg width="708" height="243" viewBox="0 0 708 243" fill="none" xmlns="http://www.w3.org/2000/svg">
<mask id="mask0_16_40" style="mask-type:luminance" maskUnits="userSpaceOnUse" x="0" y="0" width="708" height="243">
<path d="M708 0H0V242.667H708V0Z" fill="white"/>
</mask>
<g mask="url(#mask0_16_40)">
<path d="M18.3465 48.3054V122.389H71.159V131.18H18.3465V192.16H9.55481V48.3054H18.3465ZM94.1381 48.3054V192.16H85.3256V118.097H31.2215V109.285H85.3256V48.3054H94.1381Z" fill="#CA9839"/>
<path d="M194.821 47.0137V151.805C194.681 158.821 193.248 164.972 190.53 170.264C187.957 175.555 184.597 179.847 180.446 183.139C176.29 186.43 171.707 188.795 166.696 190.222C162.264 191.514 157.826 192.16 153.384 192.16H151.238C146.082 192.024 141.009 191.024 136.009 189.16C131.134 187.3 126.764 184.722 122.905 181.43C118.889 177.988 115.743 173.837 113.467 168.972C111.311 164.389 110.238 159.305 110.238 153.722V47.2428H119.03V152.43C118.889 157.305 119.681 161.607 121.405 165.326C123.113 168.899 125.472 172.045 128.488 174.764C131.639 177.347 135.217 179.357 139.217 180.785C143.228 182.357 147.384 183.212 151.675 183.347C155.967 183.503 160.118 183.003 164.134 181.847C168.285 180.712 171.931 178.847 175.071 176.264C178.222 173.696 180.8 170.404 182.8 166.389C184.811 162.529 185.889 157.67 186.03 151.805V47.0137H194.821Z" fill="#CA9839"/>
<path d="M220.588 48.097C232.754 68.571 250.932 99.2741 275.129 140.201C285.864 119.732 301.89 89.0293 323.213 48.097H332.025V192.16H323.213V66.9929C313.473 85.7429 298.807 113.868 279.213 151.368C278.489 152.8 277.265 155.092 275.546 158.243C274.682 156.66 273.4 154.441 271.692 151.576C260.234 132.399 243.197 103.701 220.588 65.4929V192.16H211.796V48.097H220.588Z" fill="#CA9839"/>
<path d="M409.092 46.8054C420.535 78.446 437.639 125.899 460.405 189.16C458.54 189.868 455.748 190.868 452.03 192.16C450.738 188.3 448.66 182.576 445.801 174.993H365.301C364.009 178.701 361.998 184.425 359.28 192.16C357.415 191.441 354.623 190.441 350.905 189.16C362.071 157.524 378.743 110.071 400.926 46.8054C401.785 44.2377 403.144 40.3783 405.009 35.222C405.868 37.795 407.228 41.6543 409.092 46.8054ZM368.301 166.18H442.801C434.353 142.847 421.759 107.925 405.009 61.4095C396.853 84.7429 384.618 119.67 368.301 166.18Z" fill="#CA9839"/>
<path d="M486.37 48.097C503.12 76.295 528.381 118.592 562.162 174.993V48.097H570.974V192.16H562.162C545.271 163.967 520.006 121.597 486.37 65.0554V191.951H477.578V48.097H486.37Z" fill="#CA9839"/>
<path d="M646.543 46.8054C657.986 78.446 675.09 125.899 697.856 189.16C695.991 189.868 693.199 190.868 689.481 192.16C688.189 188.3 686.111 182.576 683.252 174.993H602.752C601.46 178.701 599.449 184.425 596.731 192.16C594.866 191.441 592.074 190.441 588.356 189.16C599.522 157.524 616.194 110.071 638.377 46.8054C639.236 44.2377 640.595 40.3783 642.46 35.222C643.319 37.795 644.679 41.6543 646.543 46.8054ZM605.752 166.18H680.252C671.804 142.847 659.21 107.925 642.46 61.4095C634.304 84.7429 622.069 119.67 605.752 166.18Z" fill="#CA9839"/>
</g>
</svg>
